# Blender v2.78 (sub 0) OBJ File: 'terrain.blend'
# www.blender.org
mtllib terrain.mtl
o Plane
v -2.000000 0.000000 2.000000
v 2.000000 0.000000 2.000000
v -2.000000 0.000000 -2.000000
v 2.000000 0.000000 -2.000000
v -2.000000 0.000000 0.000000
v 0.000000 0.000000 2.000000
v 2.000000 0.000000 0.000000
v 0.000000 0.000000 -2.000000
v 0.000000 0.117170 0.000000
v -2.000000 0.000000 1.000000
v 1.000000 0.000000 2.000000
v 2.000000 0.000000 -1.000000
v -1.000000 0.000000 -2.000000
v -2.000000 0.000000 -1.000000
v -1.000000 0.000000 2.000000
v 2.000000 0.000000 1.000000
v 1.000000 0.000000 -2.000000
v 0.000000 0.080888 -1.000000
v 0.000000 0.000000 1.000000
v -1.000000 0.000000 0.000000
v 1.000000 0.000000 0.000000
v 1.000000 0.329432 1.000000
v -1.000000 0.000000 1.000000
v -1.000000 0.342190 -1.000000
v 1.000000 0.266041 -1.000000
v -2.000000 0.000000 1.500000
v 1.500000 0.000000 2.000000
v 2.000000 0.000000 -1.500000
v -1.500000 0.000000 -2.000000
v -2.000000 0.000000 -0.500000
v -0.500000 0.000000 2.000000
v 2.000000 0.000000 0.500000
v 0.500000 0.000000 -2.000000
v 0.000000 0.000000 -1.500000
v 0.000000 0.000000 0.500000
v -1.500000 0.000000 0.000000
v 0.500000 0.000000 0.000000
v -2.000000 0.000000 0.500000
v 0.500000 0.000000 2.000000
v 2.000000 0.000000 -0.500000
v -0.500000 0.000000 -2.000000
v -2.000000 0.000000 -1.500000
v -1.500000 0.000000 2.000000
v 2.000000 0.000000 1.500000
v 1.500000 0.000000 -2.000000
v 0.000000 0.080888 -0.500000
v 0.000000 0.000000 1.500000
v -0.500000 0.000000 0.000000
v 1.500000 0.117170 0.000000
v 1.000000 0.000000 0.500000
v 1.000000 0.128097 1.500000
v 0.500000 0.000000 1.000000
v 1.500000 0.295092 1.000000
v -1.000000 0.000000 0.500000
v -1.000000 0.000000 1.500000
v -1.500000 0.000000 1.000000
v -0.500000 0.000000 1.000000
v -1.000000 0.157687 -1.500000
v -1.000000 0.215734 -0.500000
v -1.500000 0.000000 -1.000000
v -0.500000 0.157687 -1.000000
v 1.000000 0.000000 -1.500000
v 1.000000 0.266041 -0.500000
v 0.500000 0.000000 -1.000000
v 1.500000 0.117170 -1.000000
v 1.500000 0.117170 -0.500000
v 0.500000 0.000000 -0.500000
v 0.500000 0.000000 -1.500000
v -0.500000 0.097443 -0.500000
v -1.500000 0.000000 -0.500000
v -1.500000 0.000000 -1.500000
v -0.500000 0.000000 1.500000
v -1.500000 0.000000 1.500000
v -1.500000 0.000000 0.500000
v 1.500000 0.295092 1.500000
v 0.500000 0.000000 1.500000
v 0.500000 0.000000 0.500000
v 1.500000 0.000000 0.500000
v -0.500000 0.000000 0.500000
v -0.500000 0.157687 -1.500000
v 1.500000 0.117170 -1.500000
v -2.000000 0.000000 1.750000
v 1.750000 0.000000 2.000000
v 2.000000 0.000000 -1.750000
v -1.750000 0.000000 -2.000000
v -2.000000 0.000000 -0.250000
v -0.250000 0.000000 2.000000
v 2.000000 0.000000 0.250000
v 0.250000 0.000000 -2.000000
v 0.000000 0.000000 -1.750000
v 0.000000 0.000000 0.250000
v -1.750000 0.000000 0.000000
v 0.250000 0.000000 0.000000
v -2.000000 0.000000 0.750000
v 0.750000 0.000000 2.000000
v 2.000000 0.000000 -0.750000
v -0.750000 0.000000 -2.000000
v -2.000000 0.000000 -1.250000
v -1.250000 0.000000 2.000000
v 2.000000 0.000000 1.250000
v 1.250000 0.000000 -2.000000
v 0.000000 0.080888 -0.750000
v 0.000000 0.000000 1.250000
v -0.750000 0.000000 0.000000
v 1.250000 0.000000 0.000000
v 1.000000 0.000000 0.250000
v 1.000000 0.050925 1.250000
v 0.250000 0.000000 1.000000
v 1.250000 0.128097 1.000000
v -1.000000 0.000000 0.250000
v -1.000000 0.000000 1.250000
v -1.750000 0.000000 1.000000
v -0.750000 0.000000 1.000000
v -1.000000 0.000000 -1.750000
v -1.000000 0.427028 -0.750000
v -1.750000 0.000000 -1.000000
v -0.750000 0.342190 -1.000000
v 1.000000 0.000000 -1.750000
v 1.000000 0.334661 -0.750000
v 0.250000 0.000000 -1.000000
v 1.250000 0.266041 -1.000000
v -2.000000 0.000000 1.250000
v 1.250000 0.000000 2.000000
v 2.000000 0.000000 -1.250000
v -1.250000 0.000000 -2.000000
v -2.000000 0.000000 -0.750000
v -0.750000 0.000000 2.000000
v 2.000000 0.000000 0.750000
v 0.750000 0.000000 -2.000000
v 0.000000 0.080888 -1.250000
v 0.000000 0.000000 0.750000
v -1.250000 0.000000 0.000000
v 0.750000 0.000000 0.000000
v -2.000000 0.000000 0.250000
v 0.250000 0.000000 2.000000
v 2.000000 0.000000 -0.250000
v -0.250000 0.000000 -2.000000
v -2.000000 0.000000 -1.750000
v -1.750000 0.000000 2.000000
v 2.000000 0.000000 1.750000
v 1.750000 0.000000 -2.000000
v 0.000000 0.080888 -0.250000
v 0.000000 0.000000 1.750000
v -0.250000 0.000000 0.000000
v 1.750000 0.000000 0.000000
v 1.000000 0.128097 0.750000
v 1.000000 0.235972 1.750000
v 0.750000 0.206370 1.000000
v 1.750000 0.295092 1.000000
v -1.000000 0.000000 0.750000
v -1.000000 0.000000 1.750000
v -1.250000 0.000000 1.000000
v -0.250000 0.000000 1.000000
v -1.000000 0.157687 -1.250000
v -1.000000 0.000000 -0.250000
v -1.250000 0.342190 -1.000000
v -0.250000 0.080888 -1.000000
v 1.000000 0.117170 -1.250000
v 1.000000 0.148871 -0.250000
v 0.750000 0.000000 -1.000000
v 1.750000 0.000000 -1.000000
v 1.500000 0.266041 -0.750000
v 1.500000 0.117170 -0.250000
v 1.250000 0.266041 -0.500000
v 1.750000 0.000000 -0.500000
v 0.500000 0.000000 -0.750000
v 0.500000 0.000000 -0.250000
v 0.250000 0.080888 -0.500000
v 0.750000 0.000000 -0.500000
v 0.500000 0.000000 -1.750000
v 0.500000 0.000000 -1.250000
v 0.250000 0.000000 -1.500000
v 0.750000 0.000000 -1.500000
v -0.500000 0.157687 -0.750000
v -0.500000 0.000000 -0.250000
v -0.750000 0.342190 -0.500000
v -0.250000 0.000000 -0.500000
v -1.500000 0.000000 -0.750000
v -1.500000 0.000000 -0.250000
v -1.750000 0.000000 -0.500000
v -1.250000 0.342190 -0.500000
v -1.500000 0.000000 -1.750000
v -1.500000 0.000000 -1.250000
v -1.750000 0.000000 -1.500000
v -1.250000 0.157687 -1.500000
v -0.500000 0.000000 1.250000
v -0.500000 0.000000 1.750000
v -0.750000 0.000000 1.500000
v -0.250000 0.000000 1.500000
v -1.500000 0.000000 1.250000
v -1.500000 0.000000 1.750000
v -1.750000 0.000000 1.500000
v -1.250000 0.000000 1.500000
v -1.500000 0.000000 0.250000
v -1.500000 0.000000 0.750000
v -1.750000 0.000000 0.500000
v -1.250000 0.000000 0.500000
v 1.500000 0.295092 1.250000
v 1.500000 0.412114 1.750000
v 1.250000 0.188369 1.500000
v 1.750000 0.295092 1.500000
v 0.500000 0.000000 1.250000
v 0.500000 0.000000 1.750000
v 0.250000 0.000000 1.500000
v 0.750000 0.128097 1.500000
v 0.500000 0.000000 0.250000
v 0.500000 0.000000 0.750000
v 0.250000 0.000000 0.500000
v 0.750000 0.000000 0.500000
v 1.500000 0.000000 0.250000
v 1.500000 0.128097 0.750000
v 1.250000 0.000000 0.500000
v 1.750000 0.000000 0.500000
v -0.500000 0.000000 0.250000
v -0.500000 0.000000 0.750000
v -0.750000 0.000000 0.500000
v -0.250000 0.000000 0.500000
v -0.500000 0.000000 -1.750000
v -0.500000 0.047113 -1.250000
v -0.750000 0.157687 -1.500000
v -0.250000 0.000000 -1.500000
v 1.500000 0.000000 -1.750000
v 1.500000 0.117170 -1.250000
v 1.250000 0.000000 -1.500000
v 1.750000 0.000000 -1.500000
v 1.750000 0.000000 -1.250000
v 1.250000 0.117170 -1.250000
v 1.250000 0.000000 -1.750000
v -0.250000 0.080888 -1.250000
v -0.750000 0.210874 -1.250000
v -0.750000 0.000000 -1.750000
v -0.250000 0.000000 0.750000
v -0.750000 0.000000 0.750000
v -0.750000 0.000000 0.250000
v 1.750000 0.128097 0.750000
v 1.250000 0.083140 0.750000
v 1.250000 0.000000 0.250000
v 0.750000 0.128097 0.750000
v 0.250000 0.000000 0.750000
v 0.250000 0.000000 0.250000
v 0.750000 0.128097 1.750000
v 0.250000 0.000000 1.750000
v 0.250000 0.000000 1.250000
v 1.750000 0.288159 1.750000
v 1.250000 0.128097 1.750000
v 1.250000 0.121853 1.250000
v -1.250000 0.000000 0.750000
v -1.750000 0.000000 0.750000
v -1.750000 0.000000 0.250000
v -1.250000 0.000000 1.750000
v -1.750000 0.000000 1.750000
v -1.750000 0.000000 1.250000
v -0.250000 0.000000 1.750000
v -0.750000 0.000000 1.750000
v -0.750000 0.000000 1.250000
v -1.250000 0.157687 -1.250000
v -1.750000 0.000000 -1.250000
v -1.750000 0.000000 -1.750000
v -1.250000 0.000000 -0.250000
v -1.750000 0.000000 -0.250000
v -1.750000 0.000000 -0.750000
v -0.250000 0.000000 -0.250000
v -0.750000 0.000000 -0.250000
v -0.750000 0.599684 -0.750000
v 0.750000 0.000000 -1.250000
v 0.250000 0.000000 -1.250000
v 0.250000 0.000000 -1.750000
v 0.750000 0.000000 -0.250000
v 0.250000 0.000000 -0.250000
v 0.250000 0.000000 -0.750000
v 1.750000 0.000000 -0.250000
v 1.250000 0.117170 -0.250000
v 1.250000 0.334661 -0.750000
v 1.750000 0.000000 -0.750000
v 0.750000 0.000000 -0.750000
v 0.750000 0.000000 -1.750000
v -0.250000 0.080888 -0.750000
v -1.250000 0.427028 -0.750000
v -1.250000 0.000000 -1.750000
v -0.250000 0.000000 1.250000
v -1.250000 0.000000 1.250000
v -1.250000 0.000000 0.250000
v 1.750000 0.404982 1.250000
v 0.750000 0.023733 1.250000
v 0.750000 0.000000 0.250000
v 1.750000 0.000000 0.250000
v -0.250000 0.000000 0.250000
v -0.250000 0.000000 -1.750000
v 1.750000 0.000000 -1.750000
v -1.000000 0.342190 -1.000000
v -0.875000 0.342190 -1.000000
v -1.000000 0.342190 -1.000000
v -1.500000 0.000000 -0.500000
v -1.500000 0.000000 -0.250000
v -1.250000 0.000000 -0.250000
vn 0.0000 1.0000 0.0000
vn -0.2224 0.9492 -0.2224
vn -0.0825 0.9180 -0.3878
vn -0.2100 0.8533 -0.4772
vn -0.2740 0.7935 -0.5433
vn 0.3450 0.7049 0.6198
vn -0.5920 0.7724 -0.2300
vn -0.3078 0.9514 0.0000
vn 0.2942 0.9093 0.2942
vn -0.6285 0.7573 0.1775
vn 0.2744 0.9216 0.2744
vn 0.5920 0.7724 -0.2300
vn -0.7656 0.6373 0.0875
vn 0.2937 0.9559 0.0000
vn -0.1577 0.9748 0.1577
vn -0.8349 0.5427 -0.0921
vn 0.2126 0.8407 0.4979
vn 0.0000 0.8458 -0.5335
vn -0.2099 0.9549 -0.2099
vn -0.3968 0.8622 0.3149
vn -0.0511 0.9387 -0.3408
vn 0.3907 0.8335 -0.3907
vn 0.7572 0.5513 0.3503
vn 0.4707 0.7463 -0.4707
vn 0.4244 0.9055 0.0000
vn -0.5514 0.8242 -0.1290
vn -0.2849 0.9383 -0.1959
vn 0.0000 0.8315 -0.5555
vn -0.2099 0.9549 0.2099
vn -0.2064 0.9565 -0.2064
vn -0.6841 0.6843 -0.2525
vn -0.8349 0.5427 0.0921
vn 0.0837 0.9730 -0.2152
vn 0.3180 0.9124 0.2576
vn 0.2942 0.9093 -0.2942
vn 0.5920 0.7724 0.2300
vn 0.0000 0.9643 0.2647
vn 0.0000 0.9643 -0.2647
vn -0.2224 0.9492 0.2224
vn 0.0559 0.8814 0.4690
vn -0.3674 0.9276 -0.0673
vn 0.1577 0.9748 -0.1577
vn 0.3078 0.9514 0.0000
vn 0.3674 0.9276 -0.0673
vn -0.1718 0.7964 0.5799
vn 0.1577 0.9748 0.1577
vn 0.1664 0.6581 0.7343
vn -0.4000 0.6686 0.6269
vn 0.0000 0.8900 -0.4560
vn -0.1664 0.6581 0.7343
vn 0.3413 0.8758 0.3413
vn -0.6282 0.4590 0.6282
vn -0.5335 0.8458 0.0000
vn -0.2157 0.7178 0.6620
vn -0.2445 0.9319 -0.2678
vn 0.2210 0.8475 0.4826
vn 0.0944 0.9911 -0.0944
vn -0.6133 0.7848 -0.0891
vn 0.2353 0.9492 -0.2090
vn 0.0000 0.8592 -0.5116
vn -0.7656 0.6373 -0.0875
vn -0.4560 0.8900 0.0000
vn 0.3907 0.8335 0.3907
vn -0.5625 0.8267 0.0103
vn -0.3636 0.8577 -0.3636
vn 0.0825 0.9180 -0.3878
vn 0.4042 0.8205 -0.4042
vn 0.0000 0.9470 -0.3214
vn 0.5312 0.7627 -0.3690
vn -0.1052 0.9889 -0.1052
vn 0.0000 0.8046 -0.5938
vn 0.4997 0.7922 0.3504
vn 0.3705 0.8517 -0.3705
vn 0.2744 0.9216 -0.2744
vn 0.0000 0.9055 -0.4244
vn 0.1426 0.5752 0.8055
vn 0.3094 0.9447 0.1084
vn -0.4853 0.8667 -0.1153
vn 0.7441 0.5939 -0.3058
vn -0.0896 0.8421 -0.5319
vn 0.3705 0.8517 0.3705
vn 0.1718 0.7964 0.5799
vn -0.3600 0.6337 0.6847
vn 0.0000 0.9514 -0.3078
vn 0.6027 0.5229 0.6027
vn -0.3907 0.8335 -0.3907
vn 0.8072 0.5765 -0.1267
vn 0.4149 0.8098 -0.4149
vn 0.7592 0.6508 0.0090
vn 0.8072 0.5765 0.1267
vn 0.6260 0.7396 -0.2470
vn 0.0000 0.0000 1.0000
vn -0.3907 0.8335 0.3907
vn -0.4707 0.7463 -0.4707
vn -0.4555 0.7649 0.4555
vn -0.4149 0.8098 -0.4149
vn -0.1275 0.9437 -0.3053
vn -0.4149 0.8098 0.4149
usemtl Material.002
s off
f 72//1 186//1 255//1 188//1
f 227//2 223//2 81//2 224//2
f 233//1 215//1 79//1 216//1
f 236//3 211//3 78//3 212//3
f 22//4 146//4 238//4 148//4
f 19//1 131//1 232//1 153//1
f 91//1 144//1 287//1
f 23//1 150//1 247//1 152//1
f 252//1 112//1 10//1 122//1
f 254//1 187//1 72//1 188//1
f 257//1 183//1 71//1 184//1
f 249//1 92//1 5//1 134//1
f 261//1 116//1 14//1 126//1
f 234//1 104//1 20//1 110//1
f 24//5 115//5 264//5 117//5 291//5 290//5 292//5
f 263//6 175//6 69//6 176//6
f 25//7 158//7 265//7 160//7
f 18//1 130//1 229//1 157//1
f 232//1 131//1 35//1 217//1
f 262//8 142//8 46//8 177//8
f 269//9 67//9 168//9
f 237//1 105//1 21//1 106//1
f 268//10 159//10 63//10 169//10
f 272//11 163//11 66//11 164//11
f 274//12 161//12 65//12 162//12
f 275//1 160//1 64//1 166//1
f 63//13 119//13 275//13 169//13
f 62//1 118//1 276//1 173//1
f 277//14 157//14 61//14 174//14
f 46//15 102//15 277//15 177//15
f 278//16 156//16 60//16 178//16
f 59//17 115//17 278//17 181//17
f 58//18 114//18 279//18 185//18
f 280//1 153//1 57//1 186//1
f 47//1 103//1 280//1 189//1
f 281//1 152//1 56//1 190//1
f 55//1 111//1 281//1 193//1
f 282//1 132//1 36//1 194//1
f 54//1 110//1 282//1 197//1
f 283//19 149//19 53//19 198//19
f 284//20 148//20 52//20 202//20
f 51//21 107//21 284//21 205//21
f 285//1 133//1 37//1 206//1
f 50//1 106//1 285//1 209//1
f 145//1 210//1 286//1
f 287//1 144//1 48//1 214//1
f 35//1 91//1 287//1 217//1
f 34//1 90//1 288//1 221//1
f 77//1 206//1 240//1 208//1
f 80//18 218//18 231//18 220//18
f 225//22 222//22 81//22
f 28//1 84//1 289//1 225//1
f 69//23 174//23 264//23 176//23
f 79//1 214//1 234//1 216//1
f 221//24 218//24 80//24
f 48//1 144//1 262//1 175//1
f 79//1 217//1 287//1 214//1
f 49//25 145//25 271//25 163//25
f 78//1 213//1 286//1 210//1
f 37//1 133//1 268//1 167//1
f 77//1 209//1 285//1 206//1
f 135//1 39//1 203//1 242//1
f 52//26 148//26 238//26 207//26
f 76//27 205//27 284//27 202//27
f 253//1 143//1 47//1 189//1
f 53//28 149//28 235//28 211//28
f 75//29 201//29 283//29 198//29
f 241//30 147//30 51//30 205//30
f 36//1 132//1 259//1 179//1
f 74//1 197//1 282//1 194//1
f 56//1 152//1 247//1 195//1
f 73//1 193//1 281//1 190//1
f 57//1 153//1 232//1 215//1
f 72//1 189//1 280//1 186//1
f 250//1 151//1 55//1 193//1
f 70//1 178//1 261//1 180//1
f 71//1 279//1 182//1
f 60//31 156//31 256//31 183//31
f 70//32 181//32 278//32 178//32
f 61//33 157//33 229//33 219//33
f 69//34 177//34 277//34 174//34
f 67//35 270//35 168//35
f 68//1 173//1 276//1 170//1
f 64//1 160//1 265//1 171//1
f 67//1 169//1 275//1 166//1
f 71//1 182//1 258//1 184//1
f 65//25 161//25 226//25 223//25
f 66//36 165//36 274//36 162//36
f 288//1 90//1 8//1 137//1
f 63//37 164//37 273//37 119//37
f 25//38 119//38 273//38 121//38
f 105//39 49//39 163//39 272//39
f 21//40 105//40 272//40 159//40
f 63//40 159//40 272//40 164//40
f 277//1 102//1 18//1 157//1
f 66//25 163//25 271//25 165//25
f 9//41 142//41 262//41 144//41
f 46//42 168//42 270//42 102//42
f 18//43 102//43 270//43 120//43
f 93//1 37//1 167//1 269//1
f 40//1 96//1 274//1 165//1
f 9//44 93//44 269//44 142//44
f 95//45 11//45 147//45 241//45
f 46//46 142//46 269//46 168//46
f 21//1 268//1 133//1
f 7//1 136//1 271//1 145//1
f 134//1 38//1 196//1 249//1
f 67//1 167//1 268//1 169//1
f 266//1 171//1 68//1 172//1
f 210//1 105//1 237//1
f 34//1 172//1 267//1 90//1
f 68//1 170//1 267//1 172//1
f 120//1 64//1 171//1 266//1
f 34//1 266//1 172//1
f 259//47 155//47 59//47 181//47
f 68//1 171//1 265//1 173//1
f 260//1 179//1 70//1 180//1
f 176//48 264//48 115//48 59//48
f 104//1 48//1 175//1 263//1
f 20//1 104//1 263//1 155//1
f 238//49 146//49 50//49 209//49
f 59//50 155//50 263//50 176//50
f 240//1 206//1 37//1 93//1
f 175//51 177//51 69//51
f 260//1 180//1 30//1 86//1
f 92//1 36//1 179//1 260//1
f 132//1 20//1 155//1 259//1
f 243//1 202//1 52//1 108//1
f 70//52 259//52 181//52
f 257//1 184//1 42//1 98//1
f 116//1 60//1 183//1 257//1
f 281//1 111//1 23//1 152//1
f 267//1 170//1 33//1 89//1
f 71//53 183//53 256//53 185//53
f 55//1 188//1 255//1 111//1
f 23//1 111//1 255//1 113//1
f 55//1 151//1 254//1 188//1
f 72//1 187//1 253//1 189//1
f 251//1 192//1 26//1 82//1
f 19//1 108//1 239//1 131//1
f 280//1 103//1 19//1 153//1
f 73//1 191//1 250//1 193//1
f 248//1 196//1 38//1 94//1
f 112//1 56//1 195//1 248//1
f 284//54 107//54 22//54 148//54
f 258//1 182//1 29//1 85//1
f 74//1 195//1 247//1 197//1
f 51//55 200//55 246//55 107//55
f 22//56 107//56 246//56 109//56
f 51//57 147//57 245//57 200//57
f 228//1 222//1 45//1 101//1
f 245//58 199//58 75//58 200//58
f 75//59 199//59 244//59 201//59
f 47//1 204//1 243//1 103//1
f 19//1 103//1 243//1 108//1
f 247//1 150//1 54//1 197//1
f 18//43 120//43 266//43 130//43
f 47//1 143//1 242//1 204//1
f 25//60 121//60 227//60 158//60
f 242//1 203//1 76//1 204//1
f 275//61 119//61 25//61 160//61
f 76//62 203//62 241//62 205//62
f 239//1 207//1 77//1 208//1
f 35//1 208//1 240//1 91//1
f 91//63 93//63 9//63
f 108//1 52//1 207//1 239//1
f 35//1 131//1 239//1 208//1
f 285//1 106//1 21//1 133//1
f 249//1 194//1 36//1 92//1
f 246//64 198//64 53//64 109//64
f 50//1 212//1 237//1 106//1
f 109//65 53//65 211//65 236//65
f 50//66 146//66 236//66 212//66
f 282//1 110//1 20//1 132//1
f 22//67 109//67 236//67 146//67
f 78//49 211//49 235//49 213//49
f 54//1 216//1 234//1 110//1
f 76//1 202//1 243//1 204//1
f 113//1 57//1 215//1 233//1
f 54//1 150//1 233//1 216//1
f 279//1 114//1 13//1 125//1
f 23//1 113//1 233//1 150//1
f 79//1 215//1 232//1 217//1
f 58//18 220//18 231//18 114//18
f 278//68 115//68 24//68 156//68
f 230//69 117//69 61//69 219//69
f 154//70 230//70 220//70 58//70
f 276//1 118//1 17//1 129//1
f 156//71 24//71 154//71 256//71
f 219//72 221//72 80//72
f 273//73 162//73 65//73 121//73
f 62//1 224//1 228//1 118//1
f 121//74 65//74 223//74 227//74
f 12//1 124//1 226//1 161//1
f 122//1 26//1 192//1 252//1
f 62//75 158//75 227//75 224//75
f 81//25 223//25 226//25 225//25
f 261//1 178//1 60//1 116//1
f 27//76 83//76 244//76 199//76
f 74//1 194//1 249//1 196//1
f 230//77 219//77 80//77 220//77
f 252//1 190//1 56//1 112//1
f 270//1 166//1 64//1 120//1
f 95//1 203//1 39//1
f 75//78 198//78 246//78 200//78
f 231//1 218//1 41//1 97//1
f 248//1 195//1 74//1 196//1
f 255//1 186//1 57//1 113//1
f 78//1 210//1 237//1 212//1
f 117//79 264//79 174//79 61//79
f 24//80 292//80 290//80 291//80 117//80 230//80 154//80
f 66//81 162//81 273//81 164//81
f 234//1 214//1 48//1 104//1
f 11//82 123//82 245//82 147//82
f 256//1 154//1 58//1 185//1
f 123//83 27//83 199//83 245//83
f 251//1 191//1 73//1 192//1
f 265//1 62//1 173//1
f 6//1 135//1 242//1 143//1
f 130//84 221//84 229//84
f 94//1 10//1 112//1 248//1
f 73//1 190//1 252//1 192//1
f 82//1 1//1 139//1 251//1
f 83//85 140//85 244//85
f 289//1 84//1 4//1 141//1
f 258//1 85//1 3//1 138//1
f 86//1 5//1 92//1 260//1
f 87//1 6//1 143//1 253//1
f 286//1 88//1 7//1 145//1
f 267//1 89//1 8//1 90//1
f 222//86 224//86 81//86
f 274//1 96//1 12//1 161//1
f 231//1 97//1 13//1 114//1
f 98//1 14//1 116//1 257//1
f 99//1 15//1 151//1 250//1
f 283//87 100//87 16//87 149//87
f 228//1 101//1 17//1 118//1
f 226//1 124//1 28//1 225//1
f 279//1 125//1 29//1 182//1
f 126//1 30//1 180//1 261//1
f 127//1 31//1 187//1 254//1
f 128//88 213//88 235//88
f 276//1 129//1 33//1 170//1
f 271//1 136//1 40//1 165//1
f 288//1 137//1 41//1 218//1
f 138//1 42//1 184//1 258//1
f 139//1 43//1 191//1 251//1
f 244//89 140//89 44//89 201//89
f 289//1 141//1 45//1 222//1
f 31//1 87//1 253//1 187//1
f 32//1 88//1 286//1 213//1
f 43//1 99//1 250//1 191//1
f 44//90 100//90 283//90 201//90
f 15//1 127//1 254//1 151//1
f 16//91 128//91 235//91 149//91
f 259//92 179//92 294//92 295//92
f 179//92 70//92 293//92 294//92
f 91//93 9//93 144//93
f 209//1 77//1 207//1
f 145//63 49//63 210//63
f 225//1 289//1 222//1
f 221//1 288//1 218//1
f 71//94 185//94 279//94
f 21//95 159//95 268//95
f 210//93 49//93 105//93
f 34//35 130//35 266//35
f 175//1 262//1 177//1
f 70//1 179//1 259//1
f 91//1 240//1 93//1
f 207//96 238//96 209//96
f 219//97 229//97 221//97
f 95//98 241//98 203//98
f 265//86 158//86 62//86
f 130//84 34//84 221//84
f 83//1 2//1 140//1
f 222//1 228//1 224//1
f 128//1 32//1 213//1
f 269//1 167//1 67//1
f 67//1 166//1 270//1
