# Blender v2.78 (sub 0) OBJ File: 'terrain.blend'
# www.blender.org
mtllib terrain.mtl
o Plane
v -3.000000 0.000000 3.000000
v 3.000000 0.000000 3.000000
v -3.000000 0.000000 -3.000000
v 3.000000 0.000000 -3.000000
v -3.000000 0.000000 0.000000
v 0.000000 0.000000 3.000000
v 3.000000 0.000000 0.000000
v 0.000000 0.000000 -3.000000
v 0.000000 0.175756 0.000000
v -3.000000 0.000000 1.500000
v 1.500000 0.000000 3.000000
v 3.000000 0.000000 -1.500000
v -1.500000 0.000000 -3.000000
v -3.000000 0.000000 -1.500000
v -1.500000 0.000000 3.000000
v 3.000000 0.000000 1.500000
v 1.500000 0.000000 -3.000000
v 0.000000 0.121332 -1.500000
v 0.000000 0.000000 1.500000
v -1.500000 0.000000 0.000000
v 1.500000 0.000000 0.000000
v 1.500000 0.494148 1.500000
v -1.500000 0.000000 1.500000
v -1.500000 0.513285 -1.500000
v 1.500000 0.399062 -1.500000
v -3.000000 0.000000 2.250000
v 2.250000 0.000000 3.000000
v 3.000000 0.000000 -2.250000
v -2.250000 0.000000 -3.000000
v -3.000000 0.000000 -0.750000
v -0.750000 0.000000 3.000000
v 3.000000 0.000000 0.750000
v 0.750000 0.000000 -3.000000
v 0.000000 0.000000 -2.250000
v 0.000000 0.000000 0.750000
v -2.250000 0.000000 0.000000
v 0.750000 0.000000 0.000000
v -3.000000 0.000000 0.750000
v 0.750000 0.000000 3.000000
v 3.000000 0.000000 -0.750000
v -0.750000 0.000000 -3.000000
v -3.000000 0.000000 -2.250000
v -2.250000 0.000000 3.000000
v 3.000000 0.000000 2.250000
v 2.250000 0.000000 -3.000000
v 0.000000 0.121332 -0.750000
v 0.000000 0.000000 2.250000
v -0.750000 0.000000 0.000000
v 2.250000 0.175756 0.000000
v 1.500000 0.000000 0.750000
v 1.500000 0.192145 2.250000
v 0.750000 0.000000 1.500000
v 2.250000 0.442639 1.500000
v -1.500000 0.000000 0.750000
v -1.500000 0.000000 2.250000
v -2.250000 0.000000 1.500000
v -0.750000 0.000000 1.500000
v -1.500000 0.236530 -2.250000
v -1.500000 0.323601 -0.750000
v -2.250000 0.000000 -1.500000
v -0.750000 0.236530 -1.500000
v 1.500000 0.000000 -2.250000
v 1.500000 0.399062 -0.750000
v 0.750000 0.000000 -1.500000
v 2.250000 0.175756 -1.500000
v 2.250000 0.175756 -0.750000
v 0.750000 0.000000 -0.750000
v 0.750000 0.000000 -2.250000
v -0.750000 0.146165 -0.750000
v -2.250000 0.000000 -0.750000
v -2.250000 0.000000 -2.250000
v -0.750000 0.000000 2.250000
v -2.250000 0.000000 2.250000
v -2.250000 0.000000 0.750000
v 2.250000 0.442639 2.250000
v 0.750000 0.000000 2.250000
v 0.750000 0.000000 0.750000
v 2.250000 0.000000 0.750000
v -0.750000 0.000000 0.750000
v -0.750000 0.236530 -2.250000
v 2.250000 0.175756 -2.250000
v -3.000000 0.000000 2.625000
v 2.625000 0.000000 3.000000
v 3.000000 0.000000 -2.625000
v -2.625000 0.000000 -3.000000
v -3.000000 0.000000 -0.375000
v -0.375000 0.000000 3.000000
v 3.000000 0.000000 0.375000
v 0.375000 0.000000 -3.000000
v 0.000000 0.000000 -2.625000
v 0.000000 0.000000 0.375000
v -2.625000 0.000000 0.000000
v 0.375000 0.000000 0.000000
v -3.000000 0.000000 1.125000
v 1.125000 0.000000 3.000000
v 3.000000 0.000000 -1.125000
v -1.125000 0.000000 -3.000000
v -3.000000 0.000000 -1.875000
v -1.875000 0.000000 3.000000
v 3.000000 0.000000 1.875000
v 1.875000 0.000000 -3.000000
v 0.000000 0.121332 -1.125000
v 0.000000 0.000000 1.875000
v -1.125000 0.000000 0.000000
v 1.875000 0.000000 0.000000
v 1.500000 0.000000 0.375000
v 1.500000 0.076388 1.875000
v 0.375000 0.000000 1.500000
v 1.875000 0.192145 1.500000
v -1.500000 0.000000 0.375000
v -1.500000 0.000000 1.875000
v -2.625000 0.000000 1.500000
v -1.125000 0.000000 1.500000
v -1.500000 0.000000 -2.625000
v -1.500000 0.640542 -1.125000
v -2.625000 0.000000 -1.500000
v -1.125000 0.513285 -1.500000
v 1.500000 0.000000 -2.625000
v 1.500000 0.501992 -1.125000
v 0.375000 0.000000 -1.500000
v 1.875000 0.399062 -1.500000
v -3.000000 0.000000 1.875000
v 1.875000 0.000000 3.000000
v 3.000000 0.000000 -1.875000
v -1.875000 0.000000 -3.000000
v -3.000000 0.000000 -1.125000
v -1.125000 0.000000 3.000000
v 3.000000 0.000000 1.125000
v 1.125000 0.000000 -3.000000
v 0.000000 0.121332 -1.875000
v 0.000000 0.000000 1.125000
v -1.875000 0.000000 0.000000
v 1.125000 0.000000 0.000000
v -3.000000 0.000000 0.375000
v 0.375000 0.000000 3.000000
v 3.000000 0.000000 -0.375000
v -0.375000 0.000000 -3.000000
v -3.000000 0.000000 -2.625000
v -2.625000 0.000000 3.000000
v 3.000000 0.000000 2.625000
v 2.625000 0.000000 -3.000000
v 0.000000 0.121332 -0.375000
v 0.000000 0.000000 2.625000
v -0.375000 0.000000 0.000000
v 2.625000 0.000000 0.000000
v 1.500000 0.192145 1.125000
v 1.500000 0.353958 2.625000
v 1.125000 0.309556 1.500000
v 2.625000 0.442639 1.500000
v -1.500000 0.000000 1.125000
v -1.500000 0.000000 2.625000
v -1.875000 0.000000 1.500000
v -0.375000 0.000000 1.500000
v -1.500000 0.236530 -1.875000
v -1.500000 0.000000 -0.375000
v -1.875000 0.513285 -1.500000
v -0.375000 0.121332 -1.500000
v 1.500000 0.175756 -1.875000
v 1.500000 0.223306 -0.375000
v 1.125000 0.000000 -1.500000
v 2.625000 0.000000 -1.500000
v 2.250000 0.399062 -1.125000
v 2.250000 0.175756 -0.375000
v 1.875000 0.399062 -0.750000
v 2.625000 0.000000 -0.750000
v 0.750000 0.000000 -1.125000
v 0.750000 0.000000 -0.375000
v 0.375000 0.121332 -0.750000
v 1.125000 0.000000 -0.750000
v 0.750000 0.000000 -2.625000
v 0.750000 0.000000 -1.875000
v 0.375000 0.000000 -2.250000
v 1.125000 0.000000 -2.250000
v -0.750000 0.236530 -1.125000
v -0.750000 0.000000 -0.375000
v -1.125000 0.513285 -0.750000
v -0.375000 0.000000 -0.750000
v -2.250000 0.000000 -1.125000
v -2.250000 0.000000 -0.375000
v -2.625000 0.000000 -0.750000
v -1.875000 0.513285 -0.750000
v -2.250000 0.000000 -2.625000
v -2.250000 0.000000 -1.875000
v -2.625000 0.000000 -2.250000
v -1.875000 0.236530 -2.250000
v -0.750000 0.000000 1.875000
v -0.750000 0.000000 2.625000
v -1.125000 0.000000 2.250000
v -0.375000 0.000000 2.250000
v -2.250000 0.000000 1.875000
v -2.250000 0.000000 2.625000
v -2.625000 0.000000 2.250000
v -1.875000 0.000000 2.250000
v -2.250000 0.000000 0.375000
v -2.250000 0.000000 1.125000
v -2.625000 0.000000 0.750000
v -1.875000 0.000000 0.750000
v 2.250000 0.442639 1.875000
v 2.250000 0.618171 2.625000
v 1.875000 0.282553 2.250000
v 2.625000 0.442639 2.250000
v 0.750000 0.000000 1.875000
v 0.750000 0.000000 2.625000
v 0.375000 0.000000 2.250000
v 1.125000 0.192145 2.250000
v 0.750000 0.000000 0.375000
v 0.750000 0.000000 1.125000
v 0.375000 0.000000 0.750000
v 1.125000 0.000000 0.750000
v 2.250000 0.000000 0.375000
v 2.250000 0.192145 1.125000
v 1.875000 0.000000 0.750000
v 2.625000 0.000000 0.750000
v -0.750000 0.000000 0.375000
v -0.750000 0.000000 1.125000
v -1.125000 0.000000 0.750000
v -0.375000 0.000000 0.750000
v -0.750000 0.000000 -2.625000
v -0.750000 0.070669 -1.875000
v -1.125000 0.236530 -2.250000
v -0.375000 0.000000 -2.250000
v 2.250000 0.000000 -2.625000
v 2.250000 0.175756 -1.875000
v 1.875000 0.000000 -2.250000
v 2.625000 0.000000 -2.250000
v 2.625000 0.000000 -1.875000
v 1.875000 0.175756 -1.875000
v 1.875000 0.000000 -2.625000
v -0.375000 0.121332 -1.875000
v -1.125000 0.316312 -1.875000
v -1.125000 0.000000 -2.625000
v -0.375000 0.000000 1.125000
v -1.125000 0.000000 1.125000
v -1.125000 0.000000 0.375000
v 2.625000 0.192145 1.125000
v 1.875000 0.124710 1.125000
v 1.875000 0.000000 0.375000
v 1.125000 0.192145 1.125000
v 0.375000 0.000000 1.125000
v 0.375000 0.000000 0.375000
v 1.125000 0.192145 2.625000
v 0.375000 0.000000 2.625000
v 0.375000 0.000000 1.875000
v 2.625000 0.432239 2.625000
v 1.875000 0.192145 2.625000
v 1.875000 0.182780 1.875000
v -1.875000 0.000000 1.125000
v -2.625000 0.000000 1.125000
v -2.625000 0.000000 0.375000
v -1.875000 0.000000 2.625000
v -2.625000 0.000000 2.625000
v -2.625000 0.000000 1.875000
v -0.375000 0.000000 2.625000
v -1.125000 0.000000 2.625000
v -1.125000 0.000000 1.875000
v -1.875000 0.236530 -1.875000
v -2.625000 0.000000 -1.875000
v -2.625000 0.000000 -2.625000
v -1.875000 0.000000 -0.375000
v -2.625000 0.000000 -0.375000
v -2.625000 0.000000 -1.125000
v -0.375000 0.000000 -0.375000
v -1.125000 0.000000 -0.375000
v -1.125000 0.899526 -1.125000
v 1.125000 0.000000 -1.875000
v 0.375000 0.000000 -1.875000
v 0.375000 0.000000 -2.625000
v 1.125000 0.000000 -0.375000
v 0.375000 0.000000 -0.375000
v 0.375000 0.000000 -1.125000
v 2.625000 0.000000 -0.375000
v 1.875000 0.175756 -0.375000
v 1.875000 0.501992 -1.125000
v 2.625000 0.000000 -1.125000
v 1.125000 0.000000 -1.125000
v 1.125000 0.000000 -2.625000
v -0.375000 0.121332 -1.125000
v -1.875000 0.640542 -1.125000
v -1.875000 0.000000 -2.625000
v -0.375000 0.000000 1.875000
v -1.875000 0.000000 1.875000
v -1.875000 0.000000 0.375000
v 2.625000 0.607473 1.875000
v 1.125000 0.035600 1.875000
v 1.125000 0.000000 0.375000
v 2.625000 0.000000 0.375000
v -0.375000 0.000000 0.375000
v -0.375000 0.000000 -2.625000
v 2.625000 0.000000 -2.625000
v -1.500000 0.513285 -1.500000
vn 0.0000 1.0000 0.0000
vn -0.2224 0.9492 0.2224
vn -0.2157 0.7178 0.6620
vn 0.8072 0.5765 -0.1267
vn 0.0000 0.9470 -0.3214
vn -0.7656 0.6373 -0.0875
vn 0.3705 0.8517 -0.3705
vn 0.2744 0.9216 0.2744
vn 0.1577 0.9748 0.1577
vn -0.6285 0.7573 0.1775
vn -0.2224 0.9492 -0.2224
vn 0.7441 0.5939 -0.3058
vn 0.3450 0.7049 0.6198
vn -0.3078 0.9514 0.0000
vn 0.1664 0.6581 0.7343
vn -0.5625 0.8267 0.0103
vn -0.6133 0.7848 -0.0891
vn 0.7592 0.6508 0.0090
vn -0.2064 0.9565 -0.2064
vn 0.0000 0.8900 -0.4560
vn -0.0825 0.9180 -0.3878
vn 0.2409 0.9402 -0.2409
vn 0.3094 0.9447 0.1084
vn 0.0000 0.9514 -0.3078
vn 0.4244 0.9055 0.0000
vn 0.0000 0.9055 -0.4244
vn 0.0000 0.8592 -0.5116
vn 0.2744 0.9216 -0.2744
vn 0.2401 0.9690 0.0575
vn 0.0837 0.9730 -0.2152
vn -0.1052 0.9889 -0.1052
vn -0.0896 0.8421 -0.5319
vn 0.5312 0.7627 -0.3690
vn 0.0000 0.8458 -0.5335
vn 0.0000 0.8315 -0.5555
vn 0.6260 0.7396 -0.2470
vn 0.0825 0.9180 -0.3878
vn 0.4042 0.8205 -0.4042
vn -0.3636 0.8577 -0.3636
vn -0.2409 0.9402 -0.2409
vn -0.5514 0.8242 -0.1290
vn -0.2100 0.8533 -0.4772
vn 0.2224 0.9492 0.2224
vn -0.4560 0.8900 0.0000
vn -0.2409 0.9402 0.2409
vn -0.1718 0.7964 0.5799
vn 0.2353 0.9492 -0.2090
vn 0.1426 0.5752 0.8055
vn 0.4467 0.7752 0.4467
vn 0.0944 0.9911 -0.0944
vn 0.1718 0.7964 0.5799
vn -0.3600 0.6337 0.6847
vn 0.2210 0.8475 0.4826
vn -0.2445 0.9319 -0.2678
vn -0.4853 0.8667 -0.1153
vn -0.5335 0.8458 0.0000
vn -0.6841 0.6843 -0.2525
vn 0.0000 0.8046 -0.5938
vn -0.4918 0.7186 0.4918
vn 0.1879 0.9641 0.1879
vn -0.3674 0.9276 -0.0673
vn -0.1664 0.6581 0.7343
vn -0.2740 0.7935 -0.5433
vn -0.4000 0.6686 0.6269
vn 0.7572 0.5513 0.3503
vn -0.5920 0.7724 -0.2300
vn 0.1577 0.9748 -0.1577
vn 0.3078 0.9514 0.0000
vn -0.2744 0.9216 0.2744
vn 0.3674 0.9276 -0.0673
vn 0.0559 0.8814 0.4690
vn 0.0000 0.9643 -0.2647
vn 0.0000 0.9643 0.2647
vn 0.3705 0.8517 0.3705
vn 0.5920 0.7724 -0.2300
vn 0.5920 0.7724 0.2300
vn -0.7656 0.6373 0.0875
vn 0.2937 0.9559 0.0000
vn 0.3180 0.9124 0.2576
vn -0.1577 0.9748 0.1577
vn -0.8349 0.5427 -0.0921
vn -0.8349 0.5427 0.0921
vn 0.2126 0.8407 0.4979
vn -0.2880 0.9133 -0.2880
vn -0.2099 0.9549 -0.2099
vn -0.2099 0.9549 0.2099
vn 0.8072 0.5765 0.1267
vn -0.3968 0.8622 0.3149
vn -0.2849 0.9383 -0.1959
vn -0.0511 0.9387 -0.3408
vn 0.2880 0.9133 -0.2880
vn 0.2224 0.9492 -0.2224
usemtl Material.002
s off
f 289//1 84//1 4//1 141//1
f 288//1 90//1 8//1 137//1
f 287//2 91//2 9//2 144//2
f 286//1 88//1 7//1 145//1
f 285//1 106//1 21//1 133//1
f 284//3 107//3 22//3 148//3
f 283//4 100//4 16//4 149//4
f 282//1 110//1 20//1 132//1
f 281//1 111//1 23//1 152//1
f 280//1 103//1 19//1 153//1
f 279//1 114//1 13//1 125//1
f 278//5 115//5 24//5 156//5
f 277//1 102//1 18//1 157//1
f 276//1 118//1 17//1 129//1
f 275//6 119//6 25//6 160//6
f 274//1 96//1 12//1 161//1
f 273//7 162//7 65//7 121//7
f 272//8 163//8 66//8 164//8
f 271//1 136//1 40//1 165//1
f 270//1 166//1 64//1 120//1
f 269//9 167//9 67//9 168//9
f 268//10 159//10 63//10 169//10
f 267//1 170//1 33//1 89//1
f 266//1 171//1 68//1 172//1
f 265//11 158//11 62//11 173//11
f 264//12 174//12 61//12 117//12
f 263//13 175//13 69//13 176//13
f 262//14 142//14 46//14 177//14
f 261//1 178//1 60//1 116//1
f 260//1 179//1 70//1 180//1
f 259//15 155//15 59//15 181//15
f 258//1 182//1 29//1 85//1
f 257//1 183//1 71//1 184//1
f 256//1 154//1 58//1 185//1
f 255//1 186//1 57//1 113//1
f 254//1 187//1 72//1 188//1
f 253//1 143//1 47//1 189//1
f 252//1 190//1 56//1 112//1
f 251//1 191//1 73//1 192//1
f 250//1 151//1 55//1 193//1
f 249//1 194//1 36//1 92//1
f 248//1 195//1 74//1 196//1
f 247//1 150//1 54//1 197//1
f 246//16 198//16 53//16 109//16
f 245//17 199//17 75//17 200//17
f 244//18 140//18 44//18 201//18
f 243//1 202//1 52//1 108//1
f 242//1 203//1 76//1 204//1
f 241//19 147//19 51//19 205//19
f 240//1 206//1 37//1 93//1
f 239//1 207//1 77//1 208//1
f 238//20 146//20 50//20 209//20
f 237//2 210//2 49//2 105//2
f 236//21 211//21 78//21 212//21
f 235//22 128//22 32//22 213//22
f 234//1 214//1 48//1 104//1
f 233//1 215//1 79//1 216//1
f 232//1 131//1 35//1 217//1
f 231//1 218//1 41//1 97//1
f 230//23 219//23 80//23 220//23
f 229//24 130//24 34//24 221//24
f 228//1 222//1 45//1 101//1
f 227//11 223//11 81//11 224//11
f 226//1 124//1 28//1 225//1
f 223//25 226//25 225//25 81//25
f 65//25 161//25 226//25 223//25
f 161//1 12//1 124//1 226//1
f 158//26 227//26 224//26 62//26
f 25//27 121//27 227//27 158//27
f 121//28 65//28 223//28 227//28
f 118//1 228//1 101//1 17//1
f 62//1 224//1 228//1 118//1
f 224//11 81//11 222//11 228//11
f 219//29 229//29 221//29 80//29
f 61//30 157//30 229//30 219//30
f 157//1 18//1 130//1 229//1
f 154//31 230//31 220//31 58//31
f 24//32 290//32 117//32 230//32 154//32
f 117//33 61//33 219//33 230//33
f 114//1 231//1 97//1 13//1
f 58//34 220//34 231//34 114//34
f 220//34 80//34 218//34 231//34
f 215//1 232//1 217//1 79//1
f 57//1 153//1 232//1 215//1
f 153//1 19//1 131//1 232//1
f 150//1 233//1 216//1 54//1
f 23//1 113//1 233//1 150//1
f 113//1 57//1 215//1 233//1
f 110//1 234//1 104//1 20//1
f 54//1 216//1 234//1 110//1
f 216//1 79//1 214//1 234//1
f 211//20 235//20 213//20 78//20
f 53//35 149//35 235//35 211//35
f 149//36 16//36 128//36 235//36
f 146//37 236//37 212//37 50//37
f 22//38 109//38 236//38 146//38
f 109//39 53//39 211//39 236//39
f 106//1 237//1 105//1 21//1
f 50//1 212//1 237//1 106//1
f 212//1 78//1 210//1 237//1
f 207//40 238//40 209//40 77//40
f 52//41 148//41 238//41 207//41
f 148//42 22//42 146//42 238//42
f 131//1 239//1 208//1 35//1
f 19//1 108//1 239//1 131//1
f 108//1 52//1 207//1 239//1
f 91//43 240//43 93//43 9//43
f 35//1 208//1 240//1 91//1
f 208//1 77//1 206//1 240//1
f 203//44 241//44 205//44 76//44
f 39//45 95//45 241//45 203//45
f 95//46 11//46 147//46 241//46
f 143//1 242//1 204//1 47//1
f 6//1 135//1 242//1 143//1
f 135//1 39//1 203//1 242//1
f 103//1 243//1 108//1 19//1
f 47//1 204//1 243//1 103//1
f 204//1 76//1 202//1 243//1
f 199//47 244//47 201//47 75//47
f 27//48 83//48 244//48 199//48
f 83//49 2//49 140//49 244//49
f 147//50 245//50 200//50 51//50
f 11//51 123//51 245//51 147//51
f 123//52 27//52 199//52 245//52
f 107//53 246//53 109//53 22//53
f 51//54 200//54 246//54 107//54
f 200//55 75//55 198//55 246//55
f 195//1 247//1 197//1 74//1
f 56//1 152//1 247//1 195//1
f 152//1 23//1 150//1 247//1
f 94//1 248//1 196//1 38//1
f 10//1 112//1 248//1 94//1
f 112//1 56//1 195//1 248//1
f 134//1 249//1 92//1 5//1
f 38//1 196//1 249//1 134//1
f 196//1 74//1 194//1 249//1
f 191//1 250//1 193//1 73//1
f 43//1 99//1 250//1 191//1
f 99//1 15//1 151//1 250//1
f 82//1 251//1 192//1 26//1
f 1//1 139//1 251//1 82//1
f 139//1 43//1 191//1 251//1
f 122//1 252//1 112//1 10//1
f 26//1 192//1 252//1 122//1
f 192//1 73//1 190//1 252//1
f 187//1 253//1 189//1 72//1
f 31//1 87//1 253//1 187//1
f 87//1 6//1 143//1 253//1
f 151//1 254//1 188//1 55//1
f 15//1 127//1 254//1 151//1
f 127//1 31//1 187//1 254//1
f 111//1 255//1 113//1 23//1
f 55//1 188//1 255//1 111//1
f 188//1 72//1 186//1 255//1
f 183//56 256//56 185//56 71//56
f 60//57 156//57 256//57 183//57
f 156//58 24//58 154//58 256//58
f 98//1 257//1 184//1 42//1
f 14//1 116//1 257//1 98//1
f 116//1 60//1 183//1 257//1
f 138//1 258//1 85//1 3//1
f 42//1 184//1 258//1 138//1
f 184//1 71//1 182//1 258//1
f 179//59 259//59 181//59 70//59
f 36//1 132//1 259//1 179//1
f 132//1 20//1 155//1 259//1
f 86//1 260//1 180//1 30//1
f 5//1 92//1 260//1 86//1
f 92//1 36//1 179//1 260//1
f 126//1 261//1 116//1 14//1
f 30//1 180//1 261//1 126//1
f 180//1 70//1 178//1 261//1
f 175//60 262//60 177//60 69//60
f 48//1 144//1 262//1 175//1
f 144//61 9//61 142//61 262//61
f 155//62 263//62 176//62 59//62
f 20//1 104//1 263//1 155//1
f 104//1 48//1 175//1 263//1
f 115//63 264//63 117//63 290//63 24//63
f 59//64 176//64 264//64 115//64
f 176//65 69//65 174//65 264//65
f 171//1 265//1 173//1 68//1
f 64//1 160//1 265//1 171//1
f 160//66 25//66 158//66 265//66
f 130//67 266//67 172//67 34//67
f 18//68 120//68 266//68 130//68
f 120//1 64//1 171//1 266//1
f 90//1 267//1 89//1 8//1
f 34//1 172//1 267//1 90//1
f 172//1 68//1 170//1 267//1
f 167//1 268//1 169//1 67//1
f 37//1 133//1 268//1 167//1
f 133//69 21//69 159//69 268//69
f 142//9 269//9 168//9 46//9
f 9//70 93//70 269//70 142//70
f 93//1 37//1 167//1 269//1
f 102//68 270//68 120//68 18//68
f 46//67 168//67 270//67 102//67
f 168//67 67//67 166//67 270//67
f 163//25 271//25 165//25 66//25
f 49//25 145//25 271//25 163//25
f 145//1 7//1 136//1 271//1
f 159//71 272//71 164//71 63//71
f 21//71 105//71 272//71 159//71
f 105//2 49//2 163//2 272//2
f 119//72 273//72 121//72 25//72
f 63//73 164//73 273//73 119//73
f 164//74 66//74 162//74 273//74
f 162//75 274//75 161//75 65//75
f 66//76 165//76 274//76 162//76
f 165//1 40//1 96//1 274//1
f 166//1 275//1 160//1 64//1
f 67//1 169//1 275//1 166//1
f 169//77 63//77 119//77 275//77
f 170//1 276//1 129//1 33//1
f 68//1 173//1 276//1 170//1
f 173//1 62//1 118//1 276//1
f 174//78 277//78 157//78 61//78
f 69//79 177//79 277//79 174//79
f 177//80 46//80 102//80 277//80
f 178//81 278//81 156//81 60//81
f 70//82 181//82 278//82 178//82
f 181//83 59//83 115//83 278//83
f 182//1 279//1 125//1 29//1
f 71//84 185//84 279//84 182//84
f 185//34 58//34 114//34 279//34
f 186//1 280//1 153//1 57//1
f 72//1 189//1 280//1 186//1
f 189//1 47//1 103//1 280//1
f 190//1 281//1 152//1 56//1
f 73//1 193//1 281//1 190//1
f 193//1 55//1 111//1 281//1
f 194//1 282//1 132//1 36//1
f 74//1 197//1 282//1 194//1
f 197//1 54//1 110//1 282//1
f 198//85 283//85 149//85 53//85
f 75//86 201//86 283//86 198//86
f 201//87 44//87 100//87 283//87
f 202//88 284//88 148//88 52//88
f 76//89 205//89 284//89 202//89
f 205//90 51//90 107//90 284//90
f 206//1 285//1 133//1 37//1
f 77//1 209//1 285//1 206//1
f 209//1 50//1 106//1 285//1
f 210//43 286//43 145//43 49//43
f 78//1 213//1 286//1 210//1
f 213//1 32//1 88//1 286//1
f 214//1 287//1 144//1 48//1
f 79//1 217//1 287//1 214//1
f 217//1 35//1 91//1 287//1
f 218//1 288//1 137//1 41//1
f 80//91 221//91 288//91 218//91
f 221//1 34//1 90//1 288//1
f 222//1 289//1 141//1 45//1
f 81//92 225//92 289//92 222//92
f 225//1 28//1 84//1 289//1
